<svg id="Capa_1" enable-background="new 0 0 512 512" height="512" viewBox="0 0 512 512" width="512" xmlns="http://www.w3.org/2000/svg"><g><path d="m170.391 62.841v-40.85c0-12.145 9.845-21.991 21.991-21.991h48.734c12.145 0 21.991 9.846 21.991 21.991v40.85z" fill="#365e7d"/><path d="m241.116 0h-26.282c12.145 0 21.991 9.846 21.991 21.991v40.85h26.282v-40.85c0-12.145-9.846-21.991-21.991-21.991z" fill="#2b4d66"/><path d="m384.25 512h-335.002c-11.379 0-20.604-9.225-20.604-20.604v-426.233c0-11.379 9.225-20.604 20.604-20.604h335.002c11.379 0 20.604 9.225 20.604 20.604v426.233c0 11.379-9.225 20.604-20.604 20.604z" fill="#e28086"/><path d="m59.55 475.944v-395.328c0-2.845 2.306-5.151 5.151-5.151h304.097c2.845 0 5.151 2.306 5.151 5.151v395.328c0 2.845-2.306 5.151-5.151 5.151h-304.097c-2.845 0-5.151-2.307-5.151-5.151z" fill="#e7ecf6"/><path d="m308.545 111.264h-183.593c-5.121 0-9.272-4.151-9.272-9.272v-61.3c0-5.121 4.151-9.272 9.272-9.272h183.593c5.121 0 9.272 4.151 9.272 9.272v61.301c0 5.12-4.151 9.271-9.272 9.271z" fill="#407093"/><g><g><path d="m322.858 169.803h-212.218c-4.267 0-7.726-3.459-7.726-7.726s3.459-7.726 7.726-7.726h212.217c4.267 0 7.726 3.459 7.726 7.726s-3.458 7.726-7.725 7.726z" fill="#407093"/></g><g><path d="m322.858 235.477h-212.218c-4.267 0-7.726-3.459-7.726-7.726s3.459-7.726 7.726-7.726h212.217c4.267 0 7.726 3.459 7.726 7.726s-3.458 7.726-7.725 7.726z" fill="#407093"/></g><g><path d="m322.858 301.151h-212.218c-4.267 0-7.726-3.459-7.726-7.726 0-4.268 3.459-7.726 7.726-7.726h212.217c4.267 0 7.726 3.459 7.726 7.726.001 4.267-3.458 7.726-7.725 7.726z" fill="#407093"/></g></g><g><g><path d="m322.858 366.825h-212.218c-4.267 0-7.726-3.459-7.726-7.726s3.459-7.726 7.726-7.726h212.217c4.267 0 7.726 3.459 7.726 7.726s-3.458 7.726-7.725 7.726z" fill="#407093"/></g><g><path d="m322.858 432.499h-212.218c-4.267 0-7.726-3.459-7.726-7.726s3.459-7.726 7.726-7.726h212.217c4.267 0 7.726 3.459 7.726 7.726s-3.458 7.726-7.725 7.726z" fill="#407093"/></g></g><path d="m384.25 44.559h-30.906c11.379 0 20.604 9.224 20.604 20.604v426.233c0 11.379-9.225 20.604-20.604 20.604h30.906c11.379 0 20.604-9.224 20.604-20.604v-426.233c0-11.379-9.225-20.604-20.604-20.604z" fill="#dd636e"/><path d="m368.797 75.465h-30.906c2.845 0 5.151 2.306 5.151 5.151v395.328c0 2.845-2.306 5.151-5.151 5.151h30.906c2.845 0 5.151-2.306 5.151-5.151v-395.328c0-2.845-2.306-5.151-5.151-5.151z" fill="#d8e2f1"/><circle cx="404.854" cy="293.079" fill="#90d8f9" r="78.502"/><path d="m447.864 285.353h-35.284v-35.284c0-4.268-3.459-7.726-7.726-7.726s-7.726 3.459-7.726 7.726v35.284h-35.284c-4.267 0-7.726 3.459-7.726 7.726s3.459 7.726 7.726 7.726h35.284v35.284c0 4.268 3.459 7.726 7.726 7.726s7.726-3.459 7.726-7.726v-35.284h35.284c4.267 0 7.726-3.459 7.726-7.726s-3.459-7.726-7.726-7.726z" fill="#e7ecf6"/><path d="m308.545 31.421h-26.282c5.121 0 9.272 4.151 9.272 9.272v61.301c0 5.12-4.151 9.272-9.272 9.272h26.282c5.121 0 9.272-4.151 9.272-9.272v-61.302c0-5.121-4.151-9.271-9.272-9.271z" fill="#365e7d"/><path d="m404.854 214.576c-3.97 0-7.869.301-11.681.87 37.815 5.642 66.822 38.246 66.822 77.632s-29.007 71.991-66.822 77.633c3.812.569 7.711.87 11.681.87 43.356 0 78.502-35.147 78.502-78.503s-35.147-78.502-78.502-78.502z" fill="#75cef9"/></g></svg>